<svg xmlns="http://www.w3.org/2000/svg" viewBox="0 0 24 24" width="24" height="24">
  <defs>
    <linearGradient id="g" x1="0" y1="0" x2="1" y2="1">
      <stop offset="0" stop-color="#f59e0b"/>
      <stop offset="1" stop-color="#b45309"/>
    </linearGradient>
  </defs>
  <rect width="24" height="24" rx="6" fill="url(#g)"/>
  <g transform="translate(3.2,3.2) scale(0.73)" fill="none" stroke="#1c1204" stroke-width="2.3" stroke-linecap="round" stroke-linejoin="round">
    <path d="M17 21v-2a1 1 0 0 1-1-1v-1a2 2 0 0 1 2-2h2a2 2 0 0 1 2 2v1a1 1 0 0 1-1 1"/>
    <path d="M19 15V6.5a1 1 0 0 0-7 0v11a1 1 0 0 1-7 0V9"/>
    <path d="M21 21v-2h-4"/>
    <path d="M3 5h4V3"/>
    <path d="M7 5a1 1 0 0 1 1 1v1a2 2 0 0 1-2 2H4a2 2 0 0 1-2-2V6a1 1 0 0 1 1-1V3"/>
  </g>
</svg>
